<mxfile host="Electron" modified="2024-06-19T07:25:35.387Z" agent="Mozilla/5.0 (X11; Linux x86_64) AppleWebKit/537.36 (KHTML, like Gecko) draw.io/24.5.3 Chrome/124.0.6367.207 Electron/30.0.6 Safari/537.36" etag="hphI8xBVaf8k-dFNoChO" version="24.5.3" type="device">
  <diagram name="Page-1" id="Gr0Z9Re3hkv6T5e98D3b">
    <mxGraphModel dx="4522" dy="1686" grid="1" gridSize="10" guides="1" tooltips="1" connect="1" arrows="1" fold="1" page="1" pageScale="1" pageWidth="827" pageHeight="1169" math="0" shadow="0">
      <root>
        <mxCell id="0" />
        <mxCell id="1" parent="0" />
        <mxCell id="KOgMkdajzI97pqDF37jC-1" value="&lt;div style=&quot;&quot;&gt;&lt;span style=&quot;background-color: initial;&quot;&gt;&lt;b style=&quot;&quot;&gt;&lt;font style=&quot;font-size: 40px;&quot;&gt;Masonry DFD&lt;/font&gt;&lt;/b&gt;&lt;/span&gt;&lt;/div&gt;" style="text;html=1;align=center;verticalAlign=middle;whiteSpace=wrap;rounded=0;" parent="1" vertex="1">
          <mxGeometry x="322" width="184" height="150" as="geometry" />
        </mxCell>
        <mxCell id="KOgMkdajzI97pqDF37jC-2" value="&lt;font size=&quot;1&quot; style=&quot;&quot;&gt;&lt;u style=&quot;font-size: 24px;&quot;&gt;Level 0: Masonry Framework Communication with MusicBlocks&lt;/u&gt;&lt;/font&gt;" style="text;html=1;align=center;verticalAlign=middle;whiteSpace=wrap;rounded=0;" parent="1" vertex="1">
          <mxGeometry x="150" y="210" width="540" height="30" as="geometry" />
        </mxCell>
        <mxCell id="KOgMkdajzI97pqDF37jC-3" value="" style="rounded=0;whiteSpace=wrap;html=1;fillColor=#d5e8d4;strokeColor=#82b366;" parent="1" vertex="1">
          <mxGeometry x="70" y="280" width="720" height="410" as="geometry" />
        </mxCell>
        <mxCell id="KOgMkdajzI97pqDF37jC-4" value="&lt;font style=&quot;font-size: 18px;&quot;&gt;Masonry Framework&lt;/font&gt;" style="rounded=0;whiteSpace=wrap;html=1;fillColor=#b0e3e6;strokeColor=#0e8088;" parent="1" vertex="1">
          <mxGeometry x="170" y="500" width="140" height="90" as="geometry" />
        </mxCell>
        <mxCell id="KOgMkdajzI97pqDF37jC-5" value="&lt;font style=&quot;font-size: 20px;&quot;&gt;MusicBlocks&lt;/font&gt;" style="text;html=1;align=center;verticalAlign=middle;whiteSpace=wrap;rounded=0;" parent="1" vertex="1">
          <mxGeometry x="384" y="300" width="60" height="30" as="geometry" />
        </mxCell>
        <mxCell id="KOgMkdajzI97pqDF37jC-7" value="&lt;font style=&quot;font-size: 18px;&quot;&gt;Engine&lt;/font&gt;" style="rounded=0;whiteSpace=wrap;html=1;" parent="1" vertex="1">
          <mxGeometry x="480" y="400" width="120" height="60" as="geometry" />
        </mxCell>
        <mxCell id="KOgMkdajzI97pqDF37jC-8" value="&lt;font style=&quot;font-size: 18px;&quot;&gt;Config&lt;/font&gt;" style="shape=internalStorage;whiteSpace=wrap;html=1;backgroundOutline=1;dx=10;dy=10;" parent="1" vertex="1">
          <mxGeometry x="90" y="330" width="100" height="40" as="geometry" />
        </mxCell>
        <mxCell id="KOgMkdajzI97pqDF37jC-9" value="" style="endArrow=classic;startArrow=classic;html=1;rounded=0;exitX=0.143;exitY=-0.033;exitDx=0;exitDy=0;exitPerimeter=0;entryX=0.58;entryY=0.95;entryDx=0;entryDy=0;entryPerimeter=0;" parent="1" source="KOgMkdajzI97pqDF37jC-4" target="KOgMkdajzI97pqDF37jC-8" edge="1">
          <mxGeometry width="50" height="50" relative="1" as="geometry">
            <mxPoint x="180" y="490" as="sourcePoint" />
            <mxPoint x="230" y="440" as="targetPoint" />
          </mxGeometry>
        </mxCell>
        <mxCell id="KOgMkdajzI97pqDF37jC-10" value="" style="endArrow=classic;startArrow=classic;html=1;rounded=0;" parent="1" source="KOgMkdajzI97pqDF37jC-4" edge="1">
          <mxGeometry width="50" height="50" relative="1" as="geometry">
            <mxPoint x="420" y="470" as="sourcePoint" />
            <mxPoint x="480" y="430" as="targetPoint" />
            <Array as="points">
              <mxPoint x="480" y="430" />
            </Array>
          </mxGeometry>
        </mxCell>
        <mxCell id="KOgMkdajzI97pqDF37jC-12" value="&lt;font size=&quot;1&quot; style=&quot;&quot;&gt;&lt;u style=&quot;font-size: 24px;&quot;&gt;&amp;nbsp;Level 1: Interaction between Brick, Palette, Workspace, and Stack of Bricks&lt;/u&gt;&lt;/font&gt;" style="text;html=1;align=center;verticalAlign=middle;whiteSpace=wrap;rounded=0;" parent="1" vertex="1">
          <mxGeometry x="160" y="740" width="510" height="30" as="geometry" />
        </mxCell>
        <mxCell id="KOgMkdajzI97pqDF37jC-64" value="" style="rounded=0;whiteSpace=wrap;html=1;fillColor=#d5e8d4;strokeColor=#82b366;" parent="1" vertex="1">
          <mxGeometry x="-870" y="800" width="2645" height="1350" as="geometry" />
        </mxCell>
        <mxCell id="zZqLxs5Sc7AT6L9CPlax-1" value="&lt;font style=&quot;font-size: 20px;&quot;&gt;Brick&lt;/font&gt;" style="rounded=0;whiteSpace=wrap;html=1;fillColor=#b1ddf0;strokeColor=#10739e;" parent="1" vertex="1">
          <mxGeometry x="-615" y="960" width="120" height="60" as="geometry" />
        </mxCell>
        <mxCell id="zZqLxs5Sc7AT6L9CPlax-2" value="&lt;font style=&quot;font-size: 20px;&quot;&gt;Palette&lt;/font&gt;" style="rounded=0;whiteSpace=wrap;html=1;fillColor=#b1ddf0;strokeColor=#10739e;" parent="1" vertex="1">
          <mxGeometry x="1395" y="960" width="120" height="60" as="geometry" />
        </mxCell>
        <mxCell id="zZqLxs5Sc7AT6L9CPlax-3" value="&lt;font style=&quot;font-size: 18px;&quot;&gt;Stack&lt;/font&gt;" style="rounded=0;whiteSpace=wrap;html=1;fillColor=#b1ddf0;strokeColor=#10739e;" parent="1" vertex="1">
          <mxGeometry x="-615" y="1760" width="120" height="60" as="geometry" />
        </mxCell>
        <mxCell id="zZqLxs5Sc7AT6L9CPlax-4" value="&lt;font style=&quot;font-size: 20px;&quot;&gt;Workspace&lt;/font&gt;" style="rounded=0;whiteSpace=wrap;html=1;fillColor=#b1ddf0;strokeColor=#10739e;" parent="1" vertex="1">
          <mxGeometry x="1405" y="1620" width="120" height="60" as="geometry" />
        </mxCell>
        <mxCell id="XGvi7kigQLqcWtUrIY-w-1" value="&lt;font style=&quot;font-size: 18px;&quot;&gt;Config&lt;/font&gt;" style="shape=internalStorage;whiteSpace=wrap;html=1;backgroundOutline=1;dx=10;dy=10;" parent="1" vertex="1">
          <mxGeometry x="-845" y="830" width="70" height="40" as="geometry" />
        </mxCell>
        <mxCell id="XGvi7kigQLqcWtUrIY-w-2" value="&lt;font style=&quot;font-size: 18px;&quot;&gt;Config&lt;/font&gt;" style="shape=internalStorage;whiteSpace=wrap;html=1;backgroundOutline=1;dx=10;dy=10;" parent="1" vertex="1">
          <mxGeometry x="1645" y="850" width="70" height="40" as="geometry" />
        </mxCell>
        <mxCell id="J-vUslpCRadgWDWfEH3T-1" value="&lt;font style=&quot;font-size: 18px;&quot;&gt;Get Brick Properties&lt;/font&gt;" style="ellipse;whiteSpace=wrap;html=1;fillColor=#fad7ac;strokeColor=#b46504;" vertex="1" parent="1">
          <mxGeometry x="-735" y="870" width="80" height="60" as="geometry" />
        </mxCell>
        <mxCell id="J-vUslpCRadgWDWfEH3T-2" value="" style="endArrow=classic;html=1;rounded=0;exitX=1;exitY=1;exitDx=0;exitDy=0;entryX=0;entryY=0;entryDx=0;entryDy=0;" edge="1" parent="1" source="XGvi7kigQLqcWtUrIY-w-1" target="zZqLxs5Sc7AT6L9CPlax-1">
          <mxGeometry width="50" height="50" relative="1" as="geometry">
            <mxPoint x="-695" y="920" as="sourcePoint" />
            <mxPoint x="-645" y="870" as="targetPoint" />
            <Array as="points">
              <mxPoint x="-705" y="910" />
            </Array>
          </mxGeometry>
        </mxCell>
        <mxCell id="J-vUslpCRadgWDWfEH3T-5" value="&lt;font style=&quot;font-size: 18px;&quot;&gt;Config&lt;/font&gt;" style="shape=internalStorage;whiteSpace=wrap;html=1;backgroundOutline=1;dx=10;dy=10;" vertex="1" parent="1">
          <mxGeometry x="-835" y="1920" width="70" height="40" as="geometry" />
        </mxCell>
        <mxCell id="J-vUslpCRadgWDWfEH3T-6" value="" style="endArrow=classic;html=1;rounded=0;entryX=0;entryY=1;entryDx=0;entryDy=0;" edge="1" parent="1" target="zZqLxs5Sc7AT6L9CPlax-3">
          <mxGeometry width="50" height="50" relative="1" as="geometry">
            <mxPoint x="-775" y="1920" as="sourcePoint" />
            <mxPoint x="-725" y="1870" as="targetPoint" />
          </mxGeometry>
        </mxCell>
        <mxCell id="J-vUslpCRadgWDWfEH3T-7" value="&lt;font style=&quot;font-size: 18px;&quot;&gt;Get Stack properties&lt;/font&gt;" style="ellipse;whiteSpace=wrap;html=1;fillColor=#fad7ac;strokeColor=#b46504;" vertex="1" parent="1">
          <mxGeometry x="-735" y="1850" width="100" height="60" as="geometry" />
        </mxCell>
        <mxCell id="J-vUslpCRadgWDWfEH3T-8" value="&lt;font style=&quot;font-size: 18px;&quot;&gt;Get Brick list&lt;/font&gt;" style="ellipse;whiteSpace=wrap;html=1;fillColor=#fad7ac;strokeColor=#b46504;" vertex="1" parent="1">
          <mxGeometry x="1545" y="890" width="90" height="60" as="geometry" />
        </mxCell>
        <mxCell id="J-vUslpCRadgWDWfEH3T-9" value="" style="endArrow=classic;html=1;rounded=0;exitX=0.951;exitY=0.058;exitDx=0;exitDy=0;exitPerimeter=0;entryX=1;entryY=0;entryDx=0;entryDy=0;" edge="1" parent="1" source="KOgMkdajzI97pqDF37jC-64" target="zZqLxs5Sc7AT6L9CPlax-2">
          <mxGeometry width="50" height="50" relative="1" as="geometry">
            <mxPoint x="1685" y="950" as="sourcePoint" />
            <mxPoint x="1735" y="900" as="targetPoint" />
          </mxGeometry>
        </mxCell>
        <mxCell id="J-vUslpCRadgWDWfEH3T-10" value="&lt;font style=&quot;font-size: 15px;&quot;&gt;Workspace State&lt;/font&gt;" style="shape=internalStorage;whiteSpace=wrap;html=1;backgroundOutline=1;dx=10;dy=10;" vertex="1" parent="1">
          <mxGeometry x="299" y="2020" width="150" height="90" as="geometry" />
        </mxCell>
        <mxCell id="J-vUslpCRadgWDWfEH3T-11" value="&lt;font style=&quot;font-size: 18px;&quot;&gt;Share Workspace Data&lt;/font&gt;" style="ellipse;whiteSpace=wrap;html=1;fillColor=#fad7ac;strokeColor=#b46504;" vertex="1" parent="1">
          <mxGeometry x="1110" y="2050" width="125" height="80" as="geometry" />
        </mxCell>
        <mxCell id="J-vUslpCRadgWDWfEH3T-15" value="" style="endArrow=classic;html=1;rounded=0;exitX=0;exitY=0.5;exitDx=0;exitDy=0;entryX=1;entryY=0.5;entryDx=0;entryDy=0;" edge="1" parent="1" source="J-vUslpCRadgWDWfEH3T-14" target="zZqLxs5Sc7AT6L9CPlax-1">
          <mxGeometry width="50" height="50" relative="1" as="geometry">
            <mxPoint x="595" y="1020" as="sourcePoint" />
            <mxPoint x="645" y="970" as="targetPoint" />
          </mxGeometry>
        </mxCell>
        <mxCell id="J-vUslpCRadgWDWfEH3T-17" value="" style="endArrow=classic;html=1;rounded=0;exitX=0;exitY=0.5;exitDx=0;exitDy=0;entryX=1;entryY=0.5;entryDx=0;entryDy=0;" edge="1" parent="1" source="zZqLxs5Sc7AT6L9CPlax-2" target="J-vUslpCRadgWDWfEH3T-14">
          <mxGeometry width="50" height="50" relative="1" as="geometry">
            <mxPoint x="1395" y="990" as="sourcePoint" />
            <mxPoint x="-495" y="990" as="targetPoint" />
          </mxGeometry>
        </mxCell>
        <mxCell id="J-vUslpCRadgWDWfEH3T-14" value="&lt;div style=&quot;&quot;&gt;&lt;span style=&quot;font-size: 18px; background-color: initial;&quot;&gt;Brick to add to workspace&lt;/span&gt;&lt;/div&gt;" style="text;html=1;align=center;verticalAlign=middle;whiteSpace=wrap;rounded=0;" vertex="1" parent="1">
          <mxGeometry x="1125" y="975" width="60" height="30" as="geometry" />
        </mxCell>
        <mxCell id="J-vUslpCRadgWDWfEH3T-18" value="&lt;font style=&quot;font-size: 18px;&quot;&gt;Get selected brick ID&lt;/font&gt;" style="ellipse;whiteSpace=wrap;html=1;fillColor=#fad7ac;strokeColor=#b46504;" vertex="1" parent="1">
          <mxGeometry x="575" y="940" width="120" height="80" as="geometry" />
        </mxCell>
        <mxCell id="J-vUslpCRadgWDWfEH3T-21" value="" style="endArrow=classic;html=1;rounded=0;exitX=1;exitY=1;exitDx=0;exitDy=0;entryX=0.75;entryY=0;entryDx=0;entryDy=0;" edge="1" parent="1" source="J-vUslpCRadgWDWfEH3T-19" target="zZqLxs5Sc7AT6L9CPlax-4">
          <mxGeometry width="50" height="50" relative="1" as="geometry">
            <mxPoint x="-205" y="1170" as="sourcePoint" />
            <mxPoint x="-155" y="1120" as="targetPoint" />
          </mxGeometry>
        </mxCell>
        <mxCell id="J-vUslpCRadgWDWfEH3T-22" value="" style="endArrow=classic;html=1;rounded=0;exitX=1;exitY=1;exitDx=0;exitDy=0;entryX=0;entryY=0;entryDx=0;entryDy=0;" edge="1" parent="1" source="zZqLxs5Sc7AT6L9CPlax-1" target="J-vUslpCRadgWDWfEH3T-19">
          <mxGeometry width="50" height="50" relative="1" as="geometry">
            <mxPoint x="-495" y="1020" as="sourcePoint" />
            <mxPoint x="1395" y="1760" as="targetPoint" />
          </mxGeometry>
        </mxCell>
        <mxCell id="J-vUslpCRadgWDWfEH3T-19" value="&lt;font style=&quot;font-size: 18px;&quot;&gt;Brick Creation at x,y.&lt;/font&gt;" style="text;html=1;align=center;verticalAlign=middle;whiteSpace=wrap;rounded=0;" vertex="1" parent="1">
          <mxGeometry x="1415" y="1200" width="60" height="30" as="geometry" />
        </mxCell>
        <mxCell id="J-vUslpCRadgWDWfEH3T-24" value="&lt;span style=&quot;font-size: 18px;&quot;&gt;Get Brick Data&lt;/span&gt;" style="ellipse;whiteSpace=wrap;html=1;fillColor=#fad7ac;strokeColor=#b46504;" vertex="1" parent="1">
          <mxGeometry x="25" y="1050" width="120" height="80" as="geometry" />
        </mxCell>
        <mxCell id="J-vUslpCRadgWDWfEH3T-33" value="" style="endArrow=classic;html=1;rounded=0;exitX=0;exitY=1;exitDx=0;exitDy=0;" edge="1" parent="1" source="zZqLxs5Sc7AT6L9CPlax-4">
          <mxGeometry width="50" height="50" relative="1" as="geometry">
            <mxPoint x="1395" y="1820" as="sourcePoint" />
            <mxPoint x="1125" y="1760" as="targetPoint" />
          </mxGeometry>
        </mxCell>
        <mxCell id="J-vUslpCRadgWDWfEH3T-26" value="&lt;span style=&quot;font-size: 18px;&quot;&gt;Connect/Disconnect bricks&lt;/span&gt;" style="text;html=1;align=center;verticalAlign=middle;whiteSpace=wrap;rounded=0;" vertex="1" parent="1">
          <mxGeometry x="1010" y="1740" width="60" height="80" as="geometry" />
        </mxCell>
        <mxCell id="J-vUslpCRadgWDWfEH3T-34" value="&lt;font style=&quot;font-size: 18px;&quot;&gt;Get Stack properties&lt;/font&gt;" style="ellipse;whiteSpace=wrap;html=1;fillColor=#fad7ac;strokeColor=#b46504;" vertex="1" parent="1">
          <mxGeometry x="380" y="1800" width="110" height="80" as="geometry" />
        </mxCell>
        <mxCell id="J-vUslpCRadgWDWfEH3T-25" value="&lt;font style=&quot;font-size: 18px;&quot;&gt;Stack Deletion&lt;/font&gt;" style="text;html=1;align=center;verticalAlign=middle;whiteSpace=wrap;rounded=0;" vertex="1" parent="1">
          <mxGeometry x="925" y="1630" width="60" height="60" as="geometry" />
        </mxCell>
        <mxCell id="J-vUslpCRadgWDWfEH3T-42" value="" style="endArrow=classic;html=1;rounded=0;exitX=0;exitY=0;exitDx=0;exitDy=0;entryX=1;entryY=1;entryDx=0;entryDy=0;" edge="1" parent="1" source="zZqLxs5Sc7AT6L9CPlax-4" target="J-vUslpCRadgWDWfEH3T-35">
          <mxGeometry width="50" height="50" relative="1" as="geometry">
            <mxPoint x="1395" y="1760" as="sourcePoint" />
            <mxPoint x="-554" y="1760" as="targetPoint" />
            <Array as="points" />
          </mxGeometry>
        </mxCell>
        <mxCell id="J-vUslpCRadgWDWfEH3T-35" value="&lt;font style=&quot;font-size: 18px;&quot;&gt;Stack Scaling&lt;/font&gt;" style="text;html=1;align=center;verticalAlign=middle;whiteSpace=wrap;rounded=0;" vertex="1" parent="1">
          <mxGeometry x="915" y="1510" width="60" height="30" as="geometry" />
        </mxCell>
        <mxCell id="J-vUslpCRadgWDWfEH3T-44" value="" style="endArrow=classic;startArrow=classic;html=1;rounded=0;exitX=1;exitY=0.5;exitDx=0;exitDy=0;entryX=0.5;entryY=1;entryDx=0;entryDy=0;" edge="1" parent="1" source="J-vUslpCRadgWDWfEH3T-10" target="zZqLxs5Sc7AT6L9CPlax-4">
          <mxGeometry width="50" height="50" relative="1" as="geometry">
            <mxPoint x="875" y="2110" as="sourcePoint" />
            <mxPoint x="925" y="2060" as="targetPoint" />
            <Array as="points">
              <mxPoint x="1155" y="2090" />
            </Array>
          </mxGeometry>
        </mxCell>
        <mxCell id="J-vUslpCRadgWDWfEH3T-45" value="&lt;font style=&quot;font-size: 18px;&quot;&gt;Get Stack properties (stackID)&lt;/font&gt;" style="ellipse;whiteSpace=wrap;html=1;fillColor=#fad7ac;strokeColor=#b46504;" vertex="1" parent="1">
          <mxGeometry x="-68" y="1710" width="106" height="80" as="geometry" />
        </mxCell>
        <mxCell id="J-vUslpCRadgWDWfEH3T-46" value="&lt;font style=&quot;font-size: 18px;&quot;&gt;Get Stack properties(scaleUp etc)&lt;/font&gt;" style="ellipse;whiteSpace=wrap;html=1;fillColor=#fad7ac;strokeColor=#b46504;" vertex="1" parent="1">
          <mxGeometry x="25" y="1540" width="176" height="80" as="geometry" />
        </mxCell>
        <mxCell id="J-vUslpCRadgWDWfEH3T-50" value="&lt;font style=&quot;font-size: 18px;&quot;&gt;Get Previous Sate&lt;/font&gt;" style="ellipse;whiteSpace=wrap;html=1;fillColor=#fad7ac;strokeColor=#b46504;" vertex="1" parent="1">
          <mxGeometry x="595" y="1950" width="110" height="70" as="geometry" />
        </mxCell>
        <mxCell id="J-vUslpCRadgWDWfEH3T-51" value="" style="endArrow=classic;html=1;rounded=0;exitX=1;exitY=0;exitDx=0;exitDy=0;entryX=0.25;entryY=1;entryDx=0;entryDy=0;" edge="1" parent="1" source="J-vUslpCRadgWDWfEH3T-49" target="zZqLxs5Sc7AT6L9CPlax-4">
          <mxGeometry width="50" height="50" relative="1" as="geometry">
            <mxPoint x="555" y="2090" as="sourcePoint" />
            <mxPoint x="605" y="2040" as="targetPoint" />
            <Array as="points" />
          </mxGeometry>
        </mxCell>
        <mxCell id="J-vUslpCRadgWDWfEH3T-52" value="" style="endArrow=classic;html=1;rounded=0;exitX=1;exitY=0;exitDx=0;exitDy=0;" edge="1" parent="1" source="J-vUslpCRadgWDWfEH3T-10">
          <mxGeometry width="50" height="50" relative="1" as="geometry">
            <mxPoint x="462" y="2120" as="sourcePoint" />
            <mxPoint x="915" y="1910" as="targetPoint" />
            <Array as="points" />
          </mxGeometry>
        </mxCell>
        <mxCell id="J-vUslpCRadgWDWfEH3T-49" value="&lt;font style=&quot;font-size: 18px;&quot;&gt;Undo/Redo&lt;/font&gt;" style="text;html=1;align=center;verticalAlign=middle;whiteSpace=wrap;rounded=0;" vertex="1" parent="1">
          <mxGeometry x="945" y="1880" width="60" height="30" as="geometry" />
        </mxCell>
        <mxCell id="J-vUslpCRadgWDWfEH3T-53" value="" style="endArrow=classic;html=1;rounded=0;exitX=0;exitY=0.5;exitDx=0;exitDy=0;entryX=1;entryY=0.5;entryDx=0;entryDy=0;" edge="1" parent="1" source="zZqLxs5Sc7AT6L9CPlax-4" target="J-vUslpCRadgWDWfEH3T-25">
          <mxGeometry width="50" height="50" relative="1" as="geometry">
            <mxPoint x="1125" y="1720" as="sourcePoint" />
            <mxPoint x="1175" y="1670" as="targetPoint" />
          </mxGeometry>
        </mxCell>
        <mxCell id="J-vUslpCRadgWDWfEH3T-56" value="" style="endArrow=classic;html=1;rounded=0;exitX=1;exitY=0;exitDx=0;exitDy=0;" edge="1" parent="1" source="zZqLxs5Sc7AT6L9CPlax-3">
          <mxGeometry width="50" height="50" relative="1" as="geometry">
            <mxPoint x="-485" y="1740" as="sourcePoint" />
            <mxPoint x="895" y="1540" as="targetPoint" />
            <Array as="points">
              <mxPoint x="105" y="1570" />
            </Array>
          </mxGeometry>
        </mxCell>
        <mxCell id="J-vUslpCRadgWDWfEH3T-59" value="" style="endArrow=classic;html=1;rounded=0;exitX=1;exitY=0.5;exitDx=0;exitDy=0;" edge="1" parent="1" source="zZqLxs5Sc7AT6L9CPlax-3">
          <mxGeometry width="50" height="50" relative="1" as="geometry">
            <mxPoint x="-435" y="1810" as="sourcePoint" />
            <mxPoint x="905" y="1690" as="targetPoint" />
            <Array as="points">
              <mxPoint x="205" y="1710" />
            </Array>
          </mxGeometry>
        </mxCell>
        <mxCell id="J-vUslpCRadgWDWfEH3T-60" value="" style="endArrow=classic;html=1;rounded=0;exitX=1;exitY=1;exitDx=0;exitDy=0;" edge="1" parent="1" source="zZqLxs5Sc7AT6L9CPlax-3">
          <mxGeometry width="50" height="50" relative="1" as="geometry">
            <mxPoint x="-165" y="1880" as="sourcePoint" />
            <mxPoint x="955" y="1790" as="targetPoint" />
            <Array as="points">
              <mxPoint x="235" y="1850" />
            </Array>
          </mxGeometry>
        </mxCell>
      </root>
    </mxGraphModel>
  </diagram>
</mxfile>
